<?xml version="1.0" encoding="utf-8"?>
<!DOCTYPE svg PUBLIC "-//W3C//DTD SVG 1.1//EN" "http://www.w3.org/Graphics/SVG/1.1/DTD/svg11.dtd">
<svg version="1.1" id="Layer_1" xmlns="http://www.w3.org/2000/svg" xmlns:xlink="http://www.w3.org/1999/xlink" x="0px" y="0px"
	 width="326px" height="96px" viewBox="0 0 326 96" enable-background="new 0 0 326 96" xml:space="preserve">
<path fill-rule="evenodd" clip-rule="evenodd" fill="#FFFFFF" d="M109.9,6.35c0-3.31,2.69-6,6-6s6,2.69,6,6s-2.69,6-6,6
	S109.9,9.66,109.9,6.35z"/>
<path fill-rule="evenodd" clip-rule="evenodd" fill="#FFFFFF" d="M11.49,43.26c0.21-2.21,0.74-4.24,1.61-6.11
	c0.86-1.86,1.99-3.44,3.39-4.75c1.41-1.3,3.02-2.32,4.86-3.05c1.83-0.72,3.78-1.09,5.85-1.09c2.06,0,4.03,0.37,5.9,1.09
	c1.86,0.73,3.49,1.75,4.89,3.05c1.41,1.31,2.55,2.89,3.46,4.75c0.9,1.87,1.45,3.9,1.65,6.11H11.49z M41.74,70.6
	c4.16-2.5,7.14-5.721,8.96-9.66l-9.39-2.68c-0.55,1.199-1.28,2.291-2.22,3.291s-2,1.859-3.19,2.549c-1.2,0.701-2.52,1.23-3.95,1.609
	c-1.44,0.371-2.88,0.551-4.35,0.551c-2,0-3.92-0.359-5.75-1.1c-1.84-0.73-3.47-1.781-4.9-3.15c-1.44-1.381-2.6-2.99-3.5-4.859
	c-0.91-1.861-1.46-3.961-1.64-6.301H53.7c0.06-0.471,0.14-1.049,0.2-1.75c0.06-0.69,0.09-1.44,0.09-2.25
	c0-3.53-0.62-6.91-1.84-10.14c-1.23-3.24-3.02-6.06-5.34-8.5c-2.35-2.44-5.16-4.39-8.46-5.86c-3.31-1.47-6.98-2.2-11.04-2.2
	c-4.14,0-7.88,0.72-11.21,2.15c-3.34,1.44-6.18,3.39-8.56,5.89c-2.37,2.5-4.2,5.41-5.5,8.71c-1.3,3.31-1.94,6.79-1.94,10.45
	c0,3.67,0.64,7.141,1.94,10.41c1.3,3.26,3.13,6.119,5.5,8.59c2.38,2.471,5.22,4.42,8.56,5.859c3.33,1.42,7.03,2.141,11.1,2.141
	C32.73,74.35,37.57,73.1,41.74,70.6z"/>
<path fill-rule="evenodd" clip-rule="evenodd" fill="#FFFFFF" d="M95.49,70.15c3.66-2.801,5.5-6.6,5.5-11.391
	c0-2.209-0.43-4.08-1.29-5.609c-0.88-1.531-2.16-2.83-3.85-3.891c-1.7-1.07-3.82-2-6.36-2.8c-2.53-0.8-5.46-1.59-8.79-2.41
	c-2.35-0.53-4.33-1.04-5.96-1.54c-1.62-0.5-2.98-1.07-4.04-1.71c-1.07-0.62-1.83-1.37-2.3-2.25c-0.47-0.86-0.7-2-0.7-3.4
	c0-1.66,0.33-3.11,1-4.35c0.65-1.23,1.58-2.25,2.75-3.04c1.15-0.8,2.51-1.38,4.04-1.75c1.54-0.38,3.21-0.57,5-0.57
	c3,0,5.88,0.5,8.66,1.5c2.77,1,5.11,2.5,7.05,4.5l3.29-4c-2-2.12-4.64-3.82-7.9-5.14c-3.27-1.29-6.89-1.95-10.89-1.95
	c-2.67,0-5.19,0.34-7.55,1c-2.37,0.67-4.44,1.66-6.2,2.95c-1.77,1.32-3.17,2.96-4.21,4.96c-1.03,2-1.54,4.29-1.54,6.89
	c0,2.07,0.34,3.79,1.04,5.15c0.71,1.38,1.77,2.52,3.21,3.46c1.43,0.93,3.25,1.76,5.45,2.5c2.19,0.73,4.8,1.46,7.8,2.18
	c2.59,0.611,4.87,1.211,6.84,1.77c1.97,0.561,3.59,1.221,4.91,1.951c1.29,0.74,2.28,1.58,2.95,2.549c0.66,0.971,1,2.17,1,3.641
	c0,3.141-1.25,5.561-3.75,7.25c-2.5,1.701-5.86,2.551-10.05,2.551c-3.47,0-6.72-0.6-9.75-1.801c-3.03-1.189-6.01-3-8.95-5.41
	l-3.09,4.611c2.78,2.529,6.11,4.469,9.98,5.799c3.88,1.33,7.84,2,11.91,2C86.88,74.35,91.82,72.959,95.49,70.15z"/>
<rect x="112.4" y="21.26" fill-rule="evenodd" clip-rule="evenodd" fill="#FFFFFF" width="6.8" height="52.09"/>
<path fill-rule="evenodd" clip-rule="evenodd" fill="#FFFFFF" d="M149.601,66.709c-2.34-1.09-4.39-2.59-6.15-4.5
	c-1.77-1.908-3.14-4.129-4.14-6.658c-1-2.531-1.5-5.182-1.5-8.001c0-2.59,0.4-5.17,1.25-7.7c0.82-2.53,2.04-4.8,3.64-6.8
	c1.59-2,3.54-3.61,5.84-4.84c2.3-1.24,4.92-1.86,7.86-1.86c1.86,0,3.7,0.34,5.55,1c1.831,0.67,3.54,1.58,5.14,2.7
	c1.59,1.14,3.031,2.52,4.311,4.11c1.27,1.6,2.27,3.33,3,5.19v16.09c-0.34,1.611-1.049,3.18-2.109,4.711
	c-1.061,1.529-2.391,2.92-3.951,4.15c-1.559,1.238-3.309,2.219-5.25,2.959c-1.94,0.73-3.89,1.09-5.89,1.09
	C154.46,68.35,151.93,67.801,149.601,66.709z M166.201,71.16c3.469-1.939,6.199-4.561,8.199-7.9v10.291c0,2.799-0.5,5.25-1.5,7.359
	c-1,2.08-2.359,3.811-4.049,5.189c-1.701,1.359-3.682,2.391-5.952,3.109c-2.279,0.691-4.669,1.051-7.2,1.051
	c-3.94,0-7.6-0.801-11-2.35c-3.41-1.58-6.14-4.031-8.21-7.359l-4.18,3.299c2.25,3.59,5.22,6.471,8.89,8.609
	c3.65,2.111,8.5,3.191,14.5,3.191c3.47,0,6.75-0.471,9.841-1.391c3.09-0.959,5.799-2.35,8.109-4.209
	c2.301-1.871,4.131-4.182,5.5-6.951c1.359-2.779,2.051-5.949,2.051-9.549V21.26h-6.1v10.89c-2.342-3.39-5.141-6.21-8.4-8.44
	c-3.271-2.24-7.131-3.36-11.601-3.36c-3.61,0-6.89,0.73-9.86,2.2c-2.96,1.47-5.51,3.44-7.64,5.91c-2.14,2.47-3.79,5.34-4.95,8.64
	c-1.17,3.31-1.75,6.75-1.75,10.34c0,3.41,0.59,6.721,1.8,9.91c1.18,3.201,2.87,6.029,5.04,8.5c2.16,2.471,4.74,4.451,7.71,5.951
	c2.97,1.5,6.25,2.25,9.86,2.25C159.09,74.051,162.73,73.1,166.201,71.16z"/>
<path fill-rule="evenodd" clip-rule="evenodd" fill="#FFFFFF" d="M240.201,42.85c0-3.33-0.32-6.38-0.91-9.14
	c-0.59-2.77-1.561-5.14-2.891-7.11c-1.34-1.97-3.049-3.5-5.109-4.59c-2.061-1.1-4.59-1.66-7.59-1.66c-4.271,0-8.24,1.14-11.891,3.41
	c-3.68,2.26-6.551,5.36-8.609,9.29V0.35H196.4v73h6.801v-31.91c0.59-2.12,1.51-4.07,2.75-5.89c1.229-1.79,2.68-3.36,4.359-4.7
	c1.65-1.33,3.43-2.38,5.34-3.14c1.891-0.77,3.811-1.16,5.75-1.16c3.939,0,6.92,1.47,8.951,4.41c2.029,2.94,3.049,7.36,3.049,13.3
	v29.09h6.801V42.85z"/>
<path fill-rule="evenodd" clip-rule="evenodd" fill="#FFFFFF" d="M277.602,65.35c-0.4,0.279-1.342,0.73-2.811,1.359
	c-1.471,0.621-3.16,0.941-5.09,0.941c-1.6,0-3.021-0.441-4.25-1.35c-1.24-0.9-1.92-2.311-2.051-4.25V26.649h12v-5.39h-12V3.649
	h-6.799v17.61H249.4v5.39h7.201v37.29c0,1.68,0.299,3.141,0.889,4.41c0.6,1.279,1.41,2.33,2.41,3.16c1,0.84,2.16,1.449,3.5,1.84
	c1.33,0.391,2.73,0.59,4.201,0.59c1.389,0,2.719-0.139,3.988-0.389c1.262-0.262,2.4-0.561,3.4-0.9c1-0.33,1.881-0.66,2.66-1
	c0.77-0.33,1.34-0.6,1.75-0.801L277.602,65.35z"/>
<path fill-rule="evenodd" clip-rule="evenodd" fill="#FFFFFF" d="M319.49,70.15c3.66-2.801,5.5-6.6,5.5-11.391
	c0-2.209-0.43-4.08-1.289-5.609c-0.881-1.531-2.16-2.83-3.85-3.891c-1.701-1.07-3.82-2-6.361-2.8c-2.529-0.8-5.459-1.59-8.789-2.41
	c-2.35-0.53-4.33-1.04-5.961-1.54c-1.619-0.5-2.98-1.07-4.039-1.71c-1.07-0.62-1.83-1.37-2.301-2.25c-0.471-0.86-0.699-2-0.699-3.4
	c0-1.66,0.33-3.11,1-4.35c0.65-1.23,1.58-2.25,2.75-3.04c1.15-0.8,2.51-1.38,4.039-1.75c1.541-0.38,3.211-0.57,5-0.57
	c3,0,5.881,0.5,8.66,1.5c2.77,1,5.109,2.5,7.051,4.5l3.289-4c-2-2.12-4.639-3.82-7.9-5.14c-3.27-1.29-6.889-1.95-10.889-1.95
	c-2.67,0-5.191,0.34-7.551,1c-2.369,0.67-4.439,1.66-6.199,2.95c-1.771,1.32-3.17,2.96-4.211,4.96c-1.029,2-1.539,4.29-1.539,6.89
	c0,2.07,0.34,3.79,1.039,5.15c0.711,1.38,1.77,2.52,3.211,3.46c1.43,0.93,3.25,1.76,5.449,2.5c2.189,0.73,4.801,1.46,7.801,2.18
	c2.59,0.611,4.869,1.211,6.84,1.77c1.969,0.561,3.59,1.221,4.91,1.951c1.289,0.74,2.279,1.58,2.949,2.549c0.66,0.971,1,2.17,1,3.641
	c0,3.141-1.25,5.561-3.75,7.25c-2.5,1.701-5.859,2.551-10.049,2.551c-3.471,0-6.721-0.6-9.75-1.801c-3.031-1.189-6.012-3-8.951-5.41
	l-3.09,4.611c2.779,2.529,6.109,4.469,9.98,5.799c3.879,1.33,7.84,2,11.91,2C310.881,74.35,315.82,72.959,319.49,70.15z"/>
<polygon fill-rule="evenodd" clip-rule="evenodd" fill="#FFFFFF" points="315.9,32.14 324.43,23.35 325.9,33.35 "/>
</svg>
